<?xml version="1.0" encoding="iso-8859-1"?>
<!-- Generator: Adobe Illustrator 19.1.0, SVG Export Plug-In . SVG Version: 6.00 Build 0)  -->
<svg version="1.1" id="Capa_1" xmlns="http://www.w3.org/2000/svg" xmlns:xlink="http://www.w3.org/1999/xlink" x="0px" y="0px"
	 viewBox="0 0 437 437" style="enable-background:new 0 0 437 437;" xml:space="preserve">
<g>
	<path d="M351.785,231.5v49.65c0,4.15-3.36,7.5-7.5,7.5h-13.44l-10.17,141.39c-0.28,3.92-3.55,6.96-7.48,6.96h-189.38
		c-3.94,0-7.2-3.04-7.49-6.96l-10.17-141.39h-13.44c-4.14,0-7.5-3.35-7.5-7.5V231.5c0-4.14,3.36-7.5,7.5-7.5h118.29V110.34
		c-53.37-3.86-95.61-48.51-95.61-102.84c0-4.14,3.36-7.5,7.5-7.5c43.21,0,80.3,26.73,95.61,64.52C233.815,26.73,270.895,0,314.115,0
		c4.14,0,7.5,3.36,7.5,7.5c0,54.33-42.25,98.98-95.61,102.84V224h118.28C348.425,224,351.785,227.36,351.785,231.5z M336.785,273.65
		V239h-236.57v34.65H336.785z M306.215,422l9.59-133.35h-194.61l9.59,133.35h49.59v-29.39l-18.86-18.86
		c-2.49,1.12-5.24,1.75-8.14,1.75c-11.03,0-20-8.97-20-20c0-11.02,8.97-20,20-20s20,8.98,20,20c0,2.64-0.52,5.14-1.45,7.45
		l21.25,21.25c1.41,1.4,2.2,3.31,2.2,5.3V422h15.63v-89.47c-7.32-2.98-12.5-10.15-12.5-18.53c0-11.03,8.97-20,20-20s20,8.97,20,20
		c0,8.38-5.18,15.55-12.5,18.53V422h15.63v-50.5c0-1.99,0.79-3.9,2.19-5.3l21.26-21.25c-0.93-2.31-1.46-4.82-1.46-7.45
		c0-11.03,8.98-20,20-20c11.03,0,20,8.97,20,20s-8.97,20-20,20c-2.9,0-5.65-0.63-8.14-1.75l-18.85,18.86V422H306.215z
		 M288.625,337.5c0-2.75-2.24-5-5-5c-2.75,0-5,2.25-5,5c0,2.76,2.25,5,5,5C286.385,342.5,288.625,340.26,288.625,337.5z
		 M226.345,95.26c42.34-3.75,76.17-37.58,79.92-79.91C263.935,19.1,230.105,52.93,226.345,95.26z M223.505,314c0-2.76-2.25-5-5-5
		c-2.76,0-5,2.24-5,5s2.24,5,5,5C221.255,319,223.505,316.76,223.505,314z M210.655,95.26c-3.75-42.33-37.58-76.16-79.92-79.91
		C134.495,57.68,168.325,91.51,210.655,95.26z M158.375,355.5c0-2.75-2.24-5-5-5s-5,2.25-5,5c0,2.76,2.24,5,5,5
		S158.375,358.26,158.375,355.5z"/>
	<rect x="100.215" y="239" style="fill:#FFFFFF;" width="236.57" height="34.65"/>
	<path style="fill:#FFFFFF;" d="M315.805,288.65L306.215,422h-49.58v-47.39l18.85-18.86c2.49,1.12,5.24,1.75,8.14,1.75
		c11.03,0,20-8.97,20-20s-8.97-20-20-20c-11.02,0-20,8.97-20,20c0,2.63,0.53,5.14,1.46,7.45l-21.26,21.25
		c-1.4,1.4-2.19,3.31-2.19,5.3V422h-15.63v-89.47c7.32-2.98,12.5-10.15,12.5-18.53c0-11.03-8.97-20-20-20s-20,8.97-20,20
		c0,8.38,5.18,15.55,12.5,18.53V422h-15.63v-32.5c0-1.99-0.79-3.9-2.2-5.3l-21.25-21.25c0.93-2.31,1.45-4.81,1.45-7.45
		c0-11.02-8.97-20-20-20s-20,8.98-20,20c0,11.03,8.97,20,20,20c2.9,0,5.65-0.63,8.14-1.75l18.86,18.86V422h-49.59l-9.59-133.35
		H315.805z"/>
	<path style="fill:#3DD0F2;" d="M283.625,332.5c2.76,0,5,2.25,5,5c0,2.76-2.24,5-5,5c-2.75,0-5-2.24-5-5
		C278.625,334.75,280.875,332.5,283.625,332.5z"/>
	<path style="fill:#F48C6C;" d="M306.265,15.35c-3.75,42.33-37.58,76.16-79.92,79.91C230.105,52.93,263.935,19.1,306.265,15.35z"/>
	<path style="fill:#3DD0F2;" d="M218.505,309c2.75,0,5,2.24,5,5s-2.25,5-5,5c-2.76,0-5-2.24-5-5S215.745,309,218.505,309z"/>
	<path style="fill:#F48C6C;" d="M130.735,15.35c42.34,3.75,76.17,37.58,79.92,79.91C168.325,91.51,134.495,57.68,130.735,15.35z"/>
	<path style="fill:#3DD0F2;" d="M153.375,350.5c2.76,0,5,2.25,5,5c0,2.76-2.24,5-5,5s-5-2.24-5-5
		C148.375,352.75,150.615,350.5,153.375,350.5z"/>
</g>
<g>
</g>
<g>
</g>
<g>
</g>
<g>
</g>
<g>
</g>
<g>
</g>
<g>
</g>
<g>
</g>
<g>
</g>
<g>
</g>
<g>
</g>
<g>
</g>
<g>
</g>
<g>
</g>
<g>
</g>
</svg>
